<svg width="22" height="22" viewBox="0 0 22 22" fill="none" xmlns="http://www.w3.org/2000/svg">
<path d="M11 14C12.6569 14 14 12.6569 14 11C14 9.34315 12.6569 8 11 8C9.34315 8 8 9.34315 8 11C8 12.6569 9.34315 14 11 14Z" stroke="#AB6767" stroke-width="2" stroke-linecap="round" stroke-linejoin="round"/>
<path d="M11 19C15.4183 19 19 15.4183 19 11C19 6.58172 15.4183 3 11 3C6.58172 3 3 6.58172 3 11C3 15.4183 6.58172 19 11 19Z" stroke="#AB6767" stroke-width="2" stroke-linecap="round" stroke-linejoin="round"/>
<path d="M11 1V3M11 19V21M19 11H21M1 11H3" stroke="#AB6767" stroke-width="2" stroke-linecap="round" stroke-linejoin="round"/>
</svg>
