<svg width="26" height="29" viewBox="0 0 26 29" fill="none" xmlns="http://www.w3.org/2000/svg">
<g filter="url(#filter0_d_745_5513)">
<path d="M20 3H6C4.9 3 4 3.9 4 5V19C4 20.1 4.9 21 6 21H20C21.1 21 22 20.1 22 19V5C22 3.9 21.1 3 20 3ZM14.03 7.06L15.09 6L16.5 7.41L17.91 6L18.97 7.06L17.56 8.47L18.97 9.88L17.91 10.94L16.5 9.54L15.09 10.95L14.03 9.89L15.44 8.48L14.03 7.06ZM7.25 7.72H12.25V9.22H7.25V7.72ZM12.5 16H10.5V18H9V16H7V14.5H9V12.5H10.5V14.5H12.5V16ZM19 17.25H14V15.75H19V17.25ZM19 14.75H14V13.25H19V14.75Z" fill="black"/>
</g>
<defs>
<filter id="filter0_d_745_5513" x="-3" y="0" width="32" height="32" filterUnits="userSpaceOnUse" color-interpolation-filters="sRGB">
<feFlood flood-opacity="0" result="BackgroundImageFix"/>
<feColorMatrix in="SourceAlpha" type="matrix" values="0 0 0 0 0 0 0 0 0 0 0 0 0 0 0 0 0 0 127 0" result="hardAlpha"/>
<feOffset dy="4"/>
<feGaussianBlur stdDeviation="2"/>
<feComposite in2="hardAlpha" operator="out"/>
<feColorMatrix type="matrix" values="0 0 0 0 0 0 0 0 0 0 0 0 0 0 0 0 0 0 0.25 0"/>
<feBlend mode="normal" in2="BackgroundImageFix" result="effect1_dropShadow_745_5513"/>
<feBlend mode="normal" in="SourceGraphic" in2="effect1_dropShadow_745_5513" result="shape"/>
</filter>
</defs>
</svg>
