<svg width="24" height="24" viewBox="0 0 24 24" fill="none" xmlns="http://www.w3.org/2000/svg">
<path fill-rule="evenodd" clip-rule="evenodd" d="M0.821407 0.821407C1.47228 0.170533 2.52756 0.170533 3.17843 0.821407L11.9999 9.6429L20.8214 0.821407C21.4723 0.170533 22.5276 0.170533 23.1784 0.821407C23.8293 1.47228 23.8293 2.52756 23.1784 3.17843L14.3569 11.9999L23.1784 20.8214C23.8293 21.4723 23.8293 22.5276 23.1784 23.1784C22.5276 23.8293 21.4723 23.8293 20.8214 23.1784L11.9999 14.3569L3.17843 23.1784C2.52756 23.8293 1.47228 23.8293 0.821407 23.1784C0.170533 22.5276 0.170533 21.4723 0.821407 20.8214L9.6429 11.9999L0.821407 3.17843C0.170533 2.52756 0.170533 1.47228 0.821407 0.821407Z" fill="black"/>
</svg>
