<svg width="82" height="13" viewBox="0 0 82 13" fill="none" xmlns="http://www.w3.org/2000/svg">
<path d="M0.284091 12L2.21591 0.363636H4.67614L3.08523 9.97159H8.07386L7.73295 12H0.284091ZM21.3455 6.34091C21.1333 7.58333 20.7223 8.63826 20.1125 9.50568C19.5064 10.3731 18.7659 11.0322 17.8909 11.483C17.0197 11.9337 16.0803 12.1591 15.0727 12.1591C14.0159 12.1591 13.1049 11.9186 12.3398 11.4375C11.5784 10.9564 11.0273 10.2614 10.6864 9.35227C10.3455 8.43939 10.2811 7.33902 10.4932 6.05114C10.6977 4.80492 11.1049 3.74811 11.7148 2.88068C12.3246 2.00947 13.0689 1.34659 13.9477 0.892045C14.8265 0.433712 15.7716 0.204545 16.783 0.204545C17.8322 0.204545 18.7375 0.446969 19.4989 0.931818C20.264 1.41667 20.8152 2.11742 21.1523 3.03409C21.4932 3.94697 21.5576 5.04924 21.3455 6.34091ZM18.8966 6.05114C19.0292 5.25189 19.0235 4.58144 18.8795 4.03977C18.7394 3.49432 18.4818 3.08144 18.1068 2.80114C17.7318 2.52083 17.2583 2.38068 16.6864 2.38068C16.0652 2.38068 15.4951 2.53598 14.9761 2.84659C14.461 3.1572 14.0254 3.60795 13.6693 4.19886C13.317 4.78598 13.0727 5.5 12.9364 6.34091C12.8 7.14394 12.8038 7.81439 12.9477 8.35227C13.0955 8.89015 13.3587 9.29735 13.7375 9.57386C14.1201 9.84659 14.5955 9.98295 15.1636 9.98295C15.7811 9.98295 16.3455 9.83144 16.8568 9.52841C17.372 9.22159 17.8057 8.77652 18.158 8.19318C18.5102 7.60606 18.7564 6.89205 18.8966 6.05114ZM32.0474 4.125C32.0171 3.84848 31.9527 3.60417 31.8543 3.39205C31.7596 3.17614 31.6289 2.99432 31.4622 2.84659C31.2955 2.69508 31.0929 2.57955 30.8543 2.5C30.6156 2.42045 30.3391 2.38068 30.0247 2.38068C29.43 2.38068 28.8732 2.52841 28.3543 2.82386C27.8391 3.11932 27.3997 3.54924 27.0361 4.11364C26.6724 4.67424 26.4243 5.35985 26.2918 6.17045C26.1554 6.98106 26.1554 7.67045 26.2918 8.23864C26.4319 8.80682 26.6952 9.24053 27.0815 9.53977C27.4717 9.83523 27.9736 9.98295 28.5872 9.98295C29.144 9.98295 29.644 9.88447 30.0872 9.6875C30.5304 9.48674 30.8921 9.20455 31.1724 8.84091C31.4565 8.47727 31.6384 8.04735 31.7179 7.55114L32.2065 7.625H29.2122L29.519 5.77273H34.3884L34.1384 7.23864C33.9755 8.26136 33.6175 9.14015 33.0645 9.875C32.5115 10.6098 31.8221 11.1742 30.9963 11.5682C30.1743 11.9621 29.2728 12.1591 28.2918 12.1591C27.2009 12.1591 26.2823 11.9186 25.5361 11.4375C24.7937 10.9527 24.2652 10.2652 23.9509 9.375C23.6402 8.48106 23.5853 7.42045 23.7861 6.19318C23.9414 5.25 24.2179 4.40909 24.6156 3.67045C25.0171 2.92803 25.5077 2.29924 26.0872 1.78409C26.6668 1.26894 27.3088 0.876893 28.0134 0.607954C28.7217 0.339015 29.4584 0.204545 30.2236 0.204545C30.8827 0.204545 31.4793 0.301136 32.0134 0.494318C32.5512 0.683712 33.0115 0.952651 33.394 1.30114C33.7804 1.64962 34.0721 2.06439 34.269 2.54545C34.4698 3.02273 34.5626 3.54924 34.5474 4.125H32.0474ZM56.6392 6.34091C56.4271 7.58333 56.0161 8.63826 55.4062 9.50568C54.8002 10.3731 54.0597 11.0322 53.1847 11.483C52.3134 11.9337 51.3741 12.1591 50.3665 12.1591C49.3097 12.1591 48.3987 11.9186 47.6335 11.4375C46.8722 10.9564 46.321 10.2614 45.9801 9.35227C45.6392 8.43939 45.5748 7.33902 45.7869 6.05114C45.9915 4.80492 46.3987 3.74811 47.0085 2.88068C47.6184 2.00947 48.3627 1.34659 49.2415 0.892045C50.1203 0.433712 51.0653 0.204545 52.0767 0.204545C53.1259 0.204545 54.0312 0.446969 54.7926 0.931818C55.5578 1.41667 56.1089 2.11742 56.446 3.03409C56.7869 3.94697 56.8513 5.04924 56.6392 6.34091ZM54.1903 6.05114C54.3229 5.25189 54.3172 4.58144 54.1733 4.03977C54.0331 3.49432 53.7756 3.08144 53.4006 2.80114C53.0256 2.52083 52.5521 2.38068 51.9801 2.38068C51.3589 2.38068 50.7888 2.53598 50.2699 2.84659C49.7547 3.1572 49.3191 3.60795 48.9631 4.19886C48.6108 4.78598 48.3665 5.5 48.2301 6.34091C48.0938 7.14394 48.0975 7.81439 48.2415 8.35227C48.3892 8.89015 48.6525 9.29735 49.0312 9.57386C49.4138 9.84659 49.8892 9.98295 50.4574 9.98295C51.0748 9.98295 51.6392 9.83144 52.1506 9.52841C52.6657 9.22159 53.0994 8.77652 53.4517 8.19318C53.804 7.60606 54.0502 6.89205 54.1903 6.05114ZM67.4378 0.363636H69.898L68.648 7.92045C68.5079 8.76894 68.184 9.51136 67.6764 10.1477C67.1688 10.7841 66.523 11.2803 65.7389 11.6364C64.9548 11.9886 64.0798 12.1648 63.1139 12.1648C62.148 12.1648 61.3336 11.9886 60.6707 11.6364C60.0079 11.2803 59.5287 10.7841 59.2332 10.1477C58.9378 9.51136 58.8601 8.76894 59.0003 7.92045L60.2503 0.363636H62.7105L61.4889 7.71023C61.4207 8.15341 61.4548 8.54735 61.5912 8.89205C61.7313 9.23674 61.9624 9.50758 62.2844 9.70455C62.6063 9.90152 63.0041 10 63.4776 10C63.9548 10 64.3866 9.90152 64.773 9.70455C65.1632 9.50758 65.4832 9.23674 65.7332 8.89205C65.987 8.54735 66.148 8.15341 66.2162 7.71023L67.4378 0.363636ZM71.9381 2.39205L72.279 0.363636H81.8358L81.4949 2.39205H77.9324L76.3415 12H73.9097L75.5006 2.39205H71.9381Z" fill="black"/>
</svg>
