<svg width="39" height="39" viewBox="0 0 39 39" fill="none" xmlns="http://www.w3.org/2000/svg">
<path d="M36.8475 39.0002C38.0361 39.0002 39 38.0364 39 36.8477V2.15247C39 0.963574 38.0361 0 36.8475 0H2.15246C0.963422 0 0 0.963574 0 2.15247V36.8477C0 38.0364 0.963422 39.0002 2.15246 39.0002H36.8475Z" fill="#395185"/>
<path d="M26.9092 39.0002V23.8973H31.9788L32.7377 18.0115H26.9092V14.2534C26.9092 12.5493 27.3825 11.388 29.8263 11.388L32.9431 11.3866V6.1224C32.4038 6.05065 30.5537 5.89038 28.4014 5.89038C23.9076 5.89038 20.8312 8.63333 20.8312 13.6707V18.0115H15.7487V23.8973H20.8312V39.0002H26.9092Z" fill="white"/>
</svg>
