<svg width="42" height="41" viewBox="0 0 42 41" fill="none" xmlns="http://www.w3.org/2000/svg">
<g filter="url(#filter0_d_392_2883)">
<path d="M5.73525 10.2359L5.73585 10.2353C6.22981 9.74045 6.80881 9.5 7.5 9.5H12.225H12.4435L12.5919 9.3397L14.4669 7.31471L14.4686 7.31286C14.6958 7.06493 14.9707 6.86659 15.2987 6.71822C15.6222 6.57236 15.9585 6.5 16.3125 6.5H22.5C22.799 6.5 23.0264 6.59544 23.2159 6.78399C23.4045 6.97354 23.5 7.20092 23.5 7.5V10.5C23.5 11.0512 23.6922 11.5368 24.0784 11.9231C24.464 12.3086 24.9494 12.5 25.5 12.5H28V15C28 15.5509 28.1921 16.0362 28.5784 16.4216C28.9638 16.8079 29.4491 17 30 17H33C33.2993 17 33.526 17.0956 33.7144 17.2841C33.9042 17.4738 34 17.7012 34 18V30C34 30.6913 33.7599 31.271 33.2659 31.7659C32.771 32.2599 32.1913 32.5 31.5 32.5H7.5C6.80854 32.5 6.22944 32.2598 5.73555 31.7659C5.24048 31.2709 5 30.6912 5 30V12C5 11.3088 5.24046 10.7298 5.73525 10.2359ZM24.6354 26.1357L24.6357 26.1354C26.0424 24.7276 26.75 23.006 26.75 21C26.75 18.994 26.0424 17.2724 24.6357 15.8646L24.6354 15.8643C23.2276 14.4576 21.506 13.75 19.5 13.75C17.494 13.75 15.7724 14.4576 14.3646 15.8643L14.3643 15.8646C12.9576 17.2724 12.25 18.994 12.25 21C12.25 23.006 12.9576 24.7276 14.3643 26.1354L14.3646 26.1357C15.7724 27.5424 17.494 28.25 19.5 28.25C21.506 28.25 23.2276 27.5424 24.6354 26.1357ZM32 9V8.5H31.5H30C29.7007 8.5 29.474 8.40437 29.2856 8.21595C29.0958 8.02616 29 7.79882 29 7.5C29 7.20118 29.0958 6.97384 29.2856 6.78405C29.474 6.59563 29.7007 6.5 30 6.5H31.5H32V6V4.5C32 4.20118 32.0958 3.97384 32.2856 3.78405C32.474 3.59563 32.7007 3.5 33 3.5C33.2993 3.5 33.526 3.59563 33.7144 3.78405C33.9042 3.97384 34 4.20118 34 4.5V6V6.5H34.5H36C36.2993 6.5 36.526 6.59563 36.7145 6.78406C36.9042 6.97384 37 7.20118 37 7.5C37 7.79882 36.9042 8.02616 36.7144 8.21595C36.526 8.40437 36.2993 8.5 36 8.5H34.5H34V9V10.5C34 10.7988 33.9042 11.0262 33.7144 11.2159C33.526 11.4044 33.2993 11.5 33 11.5C32.7007 11.5 32.474 11.4044 32.2856 11.2159C32.0958 11.0262 32 10.7988 32 10.5V9Z" fill="#9F3F3F" stroke="#FCA85B"/>
</g>
<defs>
<filter id="filter0_d_392_2883" x="-1" y="0" width="44" height="44" filterUnits="userSpaceOnUse" color-interpolation-filters="sRGB">
<feFlood flood-opacity="0" result="BackgroundImageFix"/>
<feColorMatrix in="SourceAlpha" type="matrix" values="0 0 0 0 0 0 0 0 0 0 0 0 0 0 0 0 0 0 127 0" result="hardAlpha"/>
<feOffset dy="4"/>
<feGaussianBlur stdDeviation="2"/>
<feComposite in2="hardAlpha" operator="out"/>
<feColorMatrix type="matrix" values="0 0 0 0 0 0 0 0 0 0 0 0 0 0 0 0 0 0 0.25 0"/>
<feBlend mode="normal" in2="BackgroundImageFix" result="effect1_dropShadow_392_2883"/>
<feBlend mode="normal" in="SourceGraphic" in2="effect1_dropShadow_392_2883" result="shape"/>
</filter>
</defs>
</svg>
