<svg width="30" height="30" viewBox="0 0 30 30" fill="none" xmlns="http://www.w3.org/2000/svg">
<path d="M2.48395 8.80282L2.48455 8.80222C2.87178 8.41433 3.32241 8.22733 3.8636 8.22733H7.72951H7.94797L8.09639 8.06703L9.63049 6.41022L9.63218 6.40837C9.80945 6.21499 10.0241 6.05983 10.2818 5.94327C10.5347 5.82923 10.7972 5.77278 11.0738 5.77278H16.1363C16.3581 5.77278 16.5206 5.84214 16.6578 5.97852C16.7942 6.1157 16.8636 6.27827 16.8636 6.50006V8.9546C16.8636 9.42851 17.0297 9.84935 17.3635 10.1832C17.6969 10.5166 18.1175 10.6819 18.5909 10.6819H20.5454V12.6364C20.5454 13.1101 20.7113 13.5306 21.0453 13.8638C21.3785 14.1978 21.7991 14.3637 22.2727 14.3637H24.7272C24.9493 14.3637 25.1113 14.4332 25.2475 14.5695C25.3849 14.7069 25.4545 14.8694 25.4545 15.091V24.9091C25.4545 25.4505 25.2678 25.9017 24.8806 26.2897C24.4925 26.677 24.0413 26.8637 23.5 26.8637H3.8636C3.32214 26.8637 2.87141 26.6769 2.48425 26.2897C2.09609 25.9016 1.90906 25.4504 1.90906 24.9091V10.1819C1.90906 9.64069 2.09606 9.19005 2.48395 8.80282ZM17.9477 21.8117L17.948 21.8115C19.1162 20.6424 19.7045 19.2106 19.7045 17.5455C19.7045 15.8804 19.1162 14.4486 17.948 13.2795L17.9477 13.2793C16.7787 12.1111 15.3469 11.5228 13.6818 11.5228C12.0167 11.5228 10.5849 12.1111 9.41582 13.2793L9.41555 13.2795C8.24735 14.4486 7.65906 15.8804 7.65906 17.5455C7.65906 19.2106 8.24735 20.6424 9.41555 21.8115L9.41582 21.8117C10.5849 22.9799 12.0167 23.5682 13.6818 23.5682C15.3469 23.5682 16.7787 22.9799 17.9477 21.8117ZM24 7.72733V7.22733H23.5H22.2727C22.0506 7.22733 21.8887 7.15779 21.7524 7.02155C21.615 6.88413 21.5454 6.7216 21.5454 6.50006C21.5454 6.27851 21.615 6.11598 21.7524 5.97856C21.8887 5.84232 22.0506 5.77278 22.2727 5.77278H23.5H24V5.27278V4.04551C24 3.82396 24.0696 3.66144 24.207 3.52402L23.8542 3.17126L24.207 3.52402C24.3432 3.38778 24.5052 3.31824 24.7272 3.31824C24.9493 3.31824 25.1113 3.38778 25.2475 3.52402L25.6003 3.17126L25.2475 3.52402C25.3849 3.66144 25.4545 3.82397 25.4545 4.04551V5.27278V5.77278H25.9545H27.1818C27.4039 5.77278 27.5658 5.84232 27.702 5.97856L28.0556 5.62501L27.7021 5.97856C27.8395 6.11598 27.9091 6.27851 27.9091 6.50006C27.9091 6.7216 27.8395 6.88413 27.7021 7.02155L28.0556 7.3751L27.702 7.02155C27.5658 7.15779 27.4039 7.22733 27.1818 7.22733H25.9545H25.4545V7.72733V8.9546C25.4545 9.17615 25.3849 9.33867 25.2475 9.47609L25.6011 9.82965L25.2475 9.47609C25.1113 9.61234 24.9493 9.68187 24.7272 9.68187C24.5052 9.68187 24.3432 9.61234 24.207 9.47609L23.8534 9.82965L24.207 9.47609C24.0696 9.33867 24 9.17615 24 8.9546V7.72733ZM23.8534 3.17046C24.0882 2.93565 24.3795 2.81824 24.7272 2.81824C25.075 2.81824 25.3662 2.93565 25.6011 3.17046C25.8367 3.4061 25.9545 3.69778 25.9545 4.04551V4.77278V5.27278L23.8534 3.17046Z" fill="#9F3F3F" stroke="#FCA85B"/>
</svg>
