<svg id="svg" version="1.1" xmlns="http://www.w3.org/2000/svg" xmlns:xlink="http://www.w3.org/1999/xlink" width="400" height="304.81283422459893" viewBox="0, 0, 400,304.81283422459893"><g id="svgg"><path id="path0" d="M337.589 0.201 C 337.479 0.311,271.312 0.401,190.553 0.401 C 53.699 0.401,43.534 0.432,41.031 0.855 C 16.673 4.969,4.504 17.351,0.484 42.112 C 0.058 44.733,-0.155 258.899,0.265 262.564 C 2.663 283.531,16.775 299.004,37.311 303.183 C 43.338 304.409,37.978 304.367,178.743 304.298 C 274.813 304.251,317.738 304.323,331.283 304.555 C 345.404 304.796,350.832 304.801,352.916 304.574 C 373.638 302.318,390.900 288.819,397.206 269.938 C 399.910 261.845,400.165 258.662,399.774 237.935 C 398.848 188.869,398.705 114.684,399.462 76.070 C 400.049 46.110,399.987 44.069,398.265 36.963 C 393.499 17.288,377.330 3.131,356.509 0.401 C 353.261 -0.025,337.976 -0.187,337.589 0.201 M353.514 23.540 C 365.256 24.718,372.754 30.757,375.580 41.312 L 376.295 43.984 376.486 66.711 C 376.788 102.505,376.771 257.487,376.465 260.391 C 375.455 269.976,369.187 277.075,359.379 279.740 C 356.569 280.504,318.254 281.025,315.299 280.340 C 309.908 279.089,308.710 277.869,295.701 260.373 C 289.764 252.388,272.630 229.492,257.624 209.492 C 242.618 189.492,224.851 165.777,218.140 156.792 C 204.192 138.118,203.803 137.701,200.328 137.701 C 197.661 137.701,197.610 137.745,178.550 156.724 C 160.057 175.139,159.171 175.929,157.010 175.933 C 154.183 175.940,152.938 174.714,145.867 164.972 C 142.933 160.929,135.405 150.702,129.140 142.246 C 116.596 125.317,109.183 115.210,104.528 108.690 C 99.931 102.250,98.112 100.712,95.644 101.175 C 93.706 101.539,92.608 102.957,82.097 118.688 C 71.252 134.919,55.989 157.483,36.916 185.479 L 25.041 202.910 24.186 201.522 L 23.331 200.134 23.177 153.075 C 22.984 94.339,23.306 47.965,23.935 43.726 C 25.815 31.065,33.061 24.703,46.925 23.540 C 50.813 23.214,350.266 23.214,353.514 23.540 M295.588 49.613 C 250.309 55.709,230.953 110.992,262.494 144.136 C 286.158 169.002,326.859 166.594,347.949 139.080 C 378.039 99.825,344.777 42.991,295.588 49.613 M308.704 73.406 C 330.036 77.126,342.094 100.542,332.430 119.481 C 320.022 143.798,285.158 143.279,273.113 118.597 C 261.918 95.658,282.978 68.919,308.704 73.406 M99.415 142.508 C 100.050 142.968,101.903 145.182,103.800 147.748 C 105.607 150.192,113.336 160.573,120.976 170.815 C 128.615 181.058,137.791 193.409,141.365 198.262 C 149.910 209.862,149.887 209.833,151.296 210.727 C 152.725 211.633,154.344 211.745,155.827 211.041 C 156.976 210.496,173.162 195.058,185.294 182.936 C 194.121 174.117,195.093 173.267,196.939 172.758 C 200.012 171.909,200.807 172.765,217.275 194.652 C 224.743 204.579,236.101 219.619,242.515 228.075 C 248.928 236.531,259.092 249.947,265.102 257.888 C 271.111 265.829,276.743 273.108,277.618 274.064 C 281.530 278.339,280.276 281.494,274.973 280.717 C 273.745 280.537,235.180 280.474,159.626 280.531 C 34.312 280.624,44.689 280.752,39.687 279.049 C 24.449 273.862,18.013 257.674,25.854 244.255 C 27.079 242.160,42.754 218.907,60.735 192.513 C 68.599 180.969,78.925 165.749,83.680 158.690 C 94.089 143.240,93.943 143.446,95.273 142.482 C 96.704 141.445,97.959 141.453,99.415 142.508 " stroke="none" fill="#84a49c" fill-rule="evenodd"></path><path id="path1" d="" stroke="none" fill="#88a49c" fill-rule="evenodd"></path><path id="path2" d="" stroke="none" fill="#88a49c" fill-rule="evenodd"></path><path id="path3" d="" stroke="none" fill="#88a49c" fill-rule="evenodd"></path><path id="path4" d="" stroke="none" fill="#88a49c" fill-rule="evenodd"></path></g></svg>