<svg width="31" height="31" viewBox="0 0 31 31" fill="none" xmlns="http://www.w3.org/2000/svg">
<path d="M15.5 19.375C17.6401 19.375 19.375 17.6401 19.375 15.5C19.375 13.3599 17.6401 11.625 15.5 11.625C13.3599 11.625 11.625 13.3599 11.625 15.5C11.625 17.6401 13.3599 19.375 15.5 19.375Z" stroke="black" stroke-width="2" stroke-linecap="round" stroke-linejoin="round"/>
<path d="M25.0584 19.375C24.8864 19.7645 24.8351 20.1967 24.9111 20.6157C24.9871 21.0347 25.1868 21.4214 25.4846 21.7258L25.5621 21.8033C25.8023 22.0432 25.9928 22.3281 26.1228 22.6417C26.2528 22.9553 26.3198 23.2915 26.3198 23.631C26.3198 23.9705 26.2528 24.3067 26.1228 24.6203C25.9928 24.9339 25.8023 25.2188 25.5621 25.4587C25.3222 25.6989 25.0373 25.8894 24.7237 26.0194C24.41 26.1495 24.0739 26.2164 23.7344 26.2164C23.3949 26.2164 23.0587 26.1495 22.7451 26.0194C22.4315 25.8894 22.1466 25.6989 21.9067 25.4587L21.8292 25.3812C21.5248 25.0834 21.1381 24.8837 20.7191 24.8077C20.3001 24.7317 19.8679 24.783 19.4784 24.955C19.0963 25.1187 18.7705 25.3906 18.541 25.7371C18.3115 26.0836 18.1883 26.4897 18.1867 26.9054V27.125C18.1867 27.8101 17.9145 28.4672 17.43 28.9517C16.9456 29.4361 16.2885 29.7083 15.6034 29.7083C14.9182 29.7083 14.2611 29.4361 13.7767 28.9517C13.2922 28.4672 13.02 27.8101 13.02 27.125V27.0087C13.01 26.5812 12.8716 26.1665 12.6228 25.8187C12.3741 25.4709 12.0264 25.2059 11.625 25.0583C11.2354 24.8864 10.8033 24.8351 10.3843 24.911C9.96525 24.987 9.57861 25.1868 9.27419 25.4845L9.19669 25.562C8.95676 25.8022 8.67185 25.9928 8.35824 26.1228C8.04463 26.2528 7.70847 26.3197 7.36898 26.3197C7.02949 26.3197 6.69333 26.2528 6.37972 26.1228C6.0661 25.9928 5.78119 25.8022 5.54127 25.562C5.30108 25.3221 5.11054 25.0372 4.98053 24.7236C4.85053 24.41 4.78361 24.0738 4.78361 23.7343C4.78361 23.3948 4.85053 23.0587 4.98053 22.7451C5.11054 22.4315 5.30108 22.1465 5.54127 21.9066L5.61877 21.8291C5.91655 21.5247 6.1163 21.1381 6.19228 20.7191C6.26825 20.3 6.21696 19.8679 6.04502 19.4783C5.88128 19.0963 5.60941 18.7704 5.26287 18.5409C4.91633 18.3114 4.51024 18.1883 4.0946 18.1866H3.87502C3.18988 18.1866 2.5328 17.9145 2.04833 17.43C1.56386 16.9455 1.29169 16.2884 1.29169 15.6033C1.29169 14.9181 1.56386 14.2611 2.04833 13.7766C2.5328 13.2921 3.18988 13.02 3.87502 13.02H3.99127C4.4188 13.01 4.83344 12.8716 5.18128 12.6228C5.52912 12.374 5.79407 12.0263 5.94169 11.625C6.11363 11.2354 6.16492 10.8032 6.08894 10.3842C6.01297 9.96519 5.81321 9.57854 5.51544 9.27413L5.43794 9.19663C5.19775 8.9567 5.0072 8.67179 4.8772 8.35818C4.74719 8.04457 4.68028 7.70841 4.68028 7.36892C4.68028 7.02943 4.74719 6.69327 4.8772 6.37965C5.0072 6.06604 5.19775 5.78113 5.43794 5.54121C5.67786 5.30102 5.96277 5.11048 6.27638 4.98047C6.58999 4.85047 6.92616 4.78355 7.26565 4.78355C7.60514 4.78355 7.9413 4.85047 8.25491 4.98047C8.56852 5.11048 8.85343 5.30102 9.09335 5.54121L9.17085 5.61871C9.47527 5.91649 9.86192 6.11624 10.2809 6.19221C10.6999 6.26819 11.1321 6.2169 11.5217 6.04496H11.625C12.0071 5.88122 12.3329 5.60935 12.5624 5.26281C12.7919 4.91627 12.915 4.51018 12.9167 4.09454V3.87496C12.9167 3.18982 13.1889 2.53274 13.6733 2.04827C14.1578 1.5638 14.8149 1.29163 15.5 1.29163C16.1852 1.29163 16.8422 1.5638 17.3267 2.04827C17.8112 2.53274 18.0834 3.18982 18.0834 3.87496V3.99121C18.085 4.40685 18.2082 4.81294 18.4377 5.15948C18.6672 5.50602 18.993 5.77789 19.375 5.94163C19.7646 6.11357 20.1968 6.16486 20.6158 6.08888C21.0348 6.01291 21.4214 5.81315 21.7259 5.51538L21.8034 5.43788C22.0433 5.19769 22.3282 5.00714 22.6418 4.87714C22.9554 4.74713 23.2916 4.68022 23.6311 4.68022C23.9706 4.68022 24.3067 4.74713 24.6203 4.87714C24.9339 5.00714 25.2188 5.19769 25.4588 5.43788C25.699 5.6778 25.8895 5.96271 26.0195 6.27632C26.1495 6.58993 26.2164 6.92609 26.2164 7.26558C26.2164 7.60507 26.1495 7.94123 26.0195 8.25485C25.8895 8.56846 25.699 8.85337 25.4588 9.09329L25.3813 9.17079C25.0835 9.47521 24.8837 9.86185 24.8078 10.2809C24.7318 10.6999 24.7831 11.132 24.955 11.5216V11.625C25.1188 12.007 25.3906 12.3328 25.7372 12.5623C26.0837 12.7918 26.4898 12.915 26.9054 12.9166H27.125C27.8102 12.9166 28.4672 13.1888 28.9517 13.6733C29.4362 14.1577 29.7084 14.8148 29.7084 15.5C29.7084 16.1851 29.4362 16.8422 28.9517 17.3267C28.4672 17.8111 27.8102 18.0833 27.125 18.0833H27.0088C26.5931 18.0849 26.187 18.2081 25.8405 18.4376C25.494 18.6671 25.2221 18.9929 25.0584 19.375V19.375Z" stroke="black" stroke-width="2" stroke-linecap="round" stroke-linejoin="round"/>
</svg>
