<svg width="47" height="31" viewBox="0 0 47 31" fill="none" xmlns="http://www.w3.org/2000/svg">
<path d="M47 25.625C47 28.4518 44.6582 30.75 41.7778 30.75H16.7519C15.3648 30.75 14.0347 30.2135 13.0556 29.2525L0.764729 17.1848C0.275064 16.7043 0 16.0557 0 15.375C0 14.6943 0.275146 14.0457 0.764729 13.5652L13.0556 1.50146C14.0347 0.539727 15.3648 0 16.7519 0H41.7778C44.6582 0 47 2.29424 47 5.125V25.625ZM22.1128 11.5393L25.9561 15.375L22.1128 19.1387C21.354 19.8914 21.354 21.1086 22.1128 21.7893C22.8799 22.6061 24.1201 22.6061 24.8137 21.7893L28.7222 18.0896L32.5573 21.7893C33.3243 22.6061 34.5646 22.6061 35.2582 21.7893C36.0905 21.1086 36.0905 19.8914 35.2582 19.1387L31.4884 15.375L35.2582 11.5393C36.0905 10.8586 36.0905 9.64141 35.2582 8.88867C34.5646 8.14395 33.3243 8.14395 32.5573 8.88867L28.7222 12.6604L24.8137 8.88867C24.1201 8.14395 22.8799 8.14395 22.1128 8.88867C21.354 9.64141 21.354 10.8586 22.1128 11.5393Z" fill="#CC1717"/>
</svg>
