<svg width="47" height="31" viewBox="0 0 47 31" fill="none" xmlns="http://www.w3.org/2000/svg">
<path d="M47 25.75C47 28.5768 44.6582 30.875 41.7778 30.875H16.7519C15.3648 30.875 14.0347 30.3385 13.0556 29.3775L0.764729 17.3098C0.275064 16.8293 0 16.1807 0 15.5C0 14.8193 0.275146 14.1707 0.764729 13.6902L13.0556 1.62646C14.0347 0.664727 15.3648 0.125 16.7519 0.125H41.7778C44.6582 0.125 47 2.41924 47 5.25V25.75ZM22.1128 11.6643L25.9561 15.5L22.1128 19.2637C21.354 20.0164 21.354 21.2336 22.1128 21.9143C22.8799 22.7311 24.1201 22.7311 24.8137 21.9143L28.7222 18.2146L32.5573 21.9143C33.3243 22.7311 34.5646 22.7311 35.2582 21.9143C36.0905 21.2336 36.0905 20.0164 35.2582 19.2637L31.4884 15.5L35.2582 11.6643C36.0905 10.9836 36.0905 9.76641 35.2582 9.01367C34.5646 8.26895 33.3243 8.26895 32.5573 9.01367L28.7222 12.7854L24.8137 9.01367C24.1201 8.26895 22.8799 8.26895 22.1128 9.01367C21.354 9.76641 21.354 10.9836 22.1128 11.6643Z" fill="white"/>
</svg>
